<mxfile host="app.diagrams.net" agent="Mozilla/5.0 (Windows NT 10.0; Win64; x64) AppleWebKit/537.36 (KHTML, like Gecko) Chrome/130.0.0.0 Safari/537.36" version="24.8.6">
  <diagram name="Страница — 1" id="BCX2g68xvazZMc-4EM5M">
    <mxGraphModel dx="2868" dy="1544" grid="1" gridSize="10" guides="1" tooltips="1" connect="1" arrows="1" fold="1" page="1" pageScale="1" pageWidth="827" pageHeight="1169" math="0" shadow="0">
      <root>
        <mxCell id="0" />
        <mxCell id="1" parent="0" />
        <mxCell id="hLho7cOb9sQzMaABNx2y-8" value="Логин" style="edgeStyle=orthogonalEdgeStyle;rounded=0;orthogonalLoop=1;jettySize=auto;html=1;exitX=0.5;exitY=0;exitDx=0;exitDy=0;" parent="1" source="8KOQaTp2vuC-cNq4KXza-4" target="hLho7cOb9sQzMaABNx2y-7" edge="1">
          <mxGeometry x="-0.0127" y="-20" relative="1" as="geometry">
            <mxPoint x="190" y="700" as="sourcePoint" />
            <Array as="points">
              <mxPoint x="200" y="600" />
            </Array>
            <mxPoint as="offset" />
          </mxGeometry>
        </mxCell>
        <mxCell id="hLho7cOb9sQzMaABNx2y-11" value="Регистрация" style="edgeStyle=orthogonalEdgeStyle;rounded=0;orthogonalLoop=1;jettySize=auto;html=1;entryX=0.5;entryY=0;entryDx=0;entryDy=0;" parent="1" source="8KOQaTp2vuC-cNq4KXza-4" target="hLho7cOb9sQzMaABNx2y-10" edge="1">
          <mxGeometry x="0.0123" y="40" relative="1" as="geometry">
            <Array as="points" />
            <mxPoint as="offset" />
          </mxGeometry>
        </mxCell>
        <mxCell id="8KOQaTp2vuC-cNq4KXza-4" value="" style="rhombus;whiteSpace=wrap;html=1;" parent="1" vertex="1">
          <mxGeometry x="160" y="719" width="80" height="80" as="geometry" />
        </mxCell>
        <mxCell id="hLho7cOb9sQzMaABNx2y-36" value="Просмотр аналитики" style="edgeStyle=orthogonalEdgeStyle;rounded=0;orthogonalLoop=1;jettySize=auto;html=1;entryX=0;entryY=0.5;entryDx=0;entryDy=0;exitX=0.5;exitY=0;exitDx=0;exitDy=0;" parent="1" source="8KOQaTp2vuC-cNq4KXza-12" target="hLho7cOb9sQzMaABNx2y-33" edge="1">
          <mxGeometry x="0.5001" y="-60" relative="1" as="geometry">
            <mxPoint as="offset" />
          </mxGeometry>
        </mxCell>
        <mxCell id="WWy0VLPpm0c-I_caaxq3-39" style="edgeStyle=orthogonalEdgeStyle;rounded=0;orthogonalLoop=1;jettySize=auto;html=1;entryX=0;entryY=0.5;entryDx=0;entryDy=0;" edge="1" parent="1" source="8KOQaTp2vuC-cNq4KXza-12" target="WWy0VLPpm0c-I_caaxq3-13">
          <mxGeometry relative="1" as="geometry" />
        </mxCell>
        <mxCell id="8KOQaTp2vuC-cNq4KXza-12" value="" style="rhombus;whiteSpace=wrap;html=1;rounded=0;arcSize=19;" parent="1" vertex="1">
          <mxGeometry x="760" y="1280" width="80" height="80" as="geometry" />
        </mxCell>
        <mxCell id="hLho7cOb9sQzMaABNx2y-5" style="edgeStyle=orthogonalEdgeStyle;rounded=0;orthogonalLoop=1;jettySize=auto;html=1;entryX=0;entryY=0.5;entryDx=0;entryDy=0;" parent="1" target="hLho7cOb9sQzMaABNx2y-4" edge="1">
          <mxGeometry relative="1" as="geometry">
            <mxPoint x="230" y="79.75" as="sourcePoint" />
          </mxGeometry>
        </mxCell>
        <mxCell id="WWy0VLPpm0c-I_caaxq3-9" style="edgeStyle=orthogonalEdgeStyle;rounded=0;orthogonalLoop=1;jettySize=auto;html=1;entryX=0;entryY=0.5;entryDx=0;entryDy=0;" edge="1" parent="1" source="hLho7cOb9sQzMaABNx2y-7" target="hLho7cOb9sQzMaABNx2y-12">
          <mxGeometry relative="1" as="geometry" />
        </mxCell>
        <mxCell id="hLho7cOb9sQzMaABNx2y-7" value="" style="rhombus;whiteSpace=wrap;html=1;" parent="1" vertex="1">
          <mxGeometry x="160" y="560" width="80" height="80" as="geometry" />
        </mxCell>
        <mxCell id="WWy0VLPpm0c-I_caaxq3-10" style="edgeStyle=orthogonalEdgeStyle;rounded=0;orthogonalLoop=1;jettySize=auto;html=1;entryX=0;entryY=0.5;entryDx=0;entryDy=0;" edge="1" parent="1" source="hLho7cOb9sQzMaABNx2y-10" target="hLho7cOb9sQzMaABNx2y-18">
          <mxGeometry relative="1" as="geometry" />
        </mxCell>
        <mxCell id="hLho7cOb9sQzMaABNx2y-10" value="" style="rhombus;whiteSpace=wrap;html=1;" parent="1" vertex="1">
          <mxGeometry x="160" y="880" width="80" height="80" as="geometry" />
        </mxCell>
        <mxCell id="hLho7cOb9sQzMaABNx2y-15" value="" style="edgeStyle=orthogonalEdgeStyle;rounded=0;orthogonalLoop=1;jettySize=auto;html=1;exitX=1;exitY=0.5;exitDx=0;exitDy=0;" parent="1" source="hLho7cOb9sQzMaABNx2y-12" target="hLho7cOb9sQzMaABNx2y-14" edge="1">
          <mxGeometry relative="1" as="geometry">
            <mxPoint x="530" y="680" as="targetPoint" />
          </mxGeometry>
        </mxCell>
        <mxCell id="hLho7cOb9sQzMaABNx2y-12" value="Ввод&lt;div&gt;Логин и Пароль&lt;/div&gt;" style="rounded=1;whiteSpace=wrap;html=1;" parent="1" vertex="1">
          <mxGeometry x="280" y="570" width="120" height="60" as="geometry" />
        </mxCell>
        <mxCell id="hLho7cOb9sQzMaABNx2y-47" value="Верно" style="edgeStyle=orthogonalEdgeStyle;rounded=0;orthogonalLoop=1;jettySize=auto;html=1;exitX=1;exitY=0.5;exitDx=0;exitDy=0;entryX=0;entryY=0.5;entryDx=0;entryDy=0;" parent="1" source="hLho7cOb9sQzMaABNx2y-14" target="hLho7cOb9sQzMaABNx2y-46" edge="1">
          <mxGeometry x="-0.1401" y="20" relative="1" as="geometry">
            <Array as="points">
              <mxPoint x="560" y="600" />
              <mxPoint x="560" y="759" />
            </Array>
            <mxPoint x="760" y="670" as="targetPoint" />
            <mxPoint as="offset" />
          </mxGeometry>
        </mxCell>
        <mxCell id="WWy0VLPpm0c-I_caaxq3-8" value="Неверно" style="edgeStyle=orthogonalEdgeStyle;rounded=0;orthogonalLoop=1;jettySize=auto;html=1;entryX=1;entryY=0.5;entryDx=0;entryDy=0;" edge="1" parent="1" source="hLho7cOb9sQzMaABNx2y-14" target="8KOQaTp2vuC-cNq4KXza-4">
          <mxGeometry x="0.3315" y="11" relative="1" as="geometry">
            <Array as="points">
              <mxPoint x="480" y="759" />
            </Array>
            <mxPoint as="offset" />
          </mxGeometry>
        </mxCell>
        <mxCell id="hLho7cOb9sQzMaABNx2y-14" value="" style="rhombus;whiteSpace=wrap;html=1;rounded=0;" parent="1" vertex="1">
          <mxGeometry x="440" y="560" width="80" height="80" as="geometry" />
        </mxCell>
        <mxCell id="hLho7cOb9sQzMaABNx2y-18" value="Создать&lt;br&gt;&lt;div&gt;Логин и Пароль&lt;/div&gt;" style="rounded=1;whiteSpace=wrap;html=1;" parent="1" vertex="1">
          <mxGeometry x="280" y="890" width="120" height="60" as="geometry" />
        </mxCell>
        <mxCell id="nNgnf1bsEjUyluCuBUII-11" value="Выход" style="edgeStyle=orthogonalEdgeStyle;rounded=0;orthogonalLoop=1;jettySize=auto;html=1;" parent="1" source="hLho7cOb9sQzMaABNx2y-19" target="nNgnf1bsEjUyluCuBUII-10" edge="1">
          <mxGeometry y="20" relative="1" as="geometry">
            <Array as="points">
              <mxPoint x="200" y="1460" />
            </Array>
            <mxPoint as="offset" />
          </mxGeometry>
        </mxCell>
        <mxCell id="WWy0VLPpm0c-I_caaxq3-41" value="Просмотр аналитики&lt;div&gt;(привязанного игрока)&lt;/div&gt;" style="edgeStyle=orthogonalEdgeStyle;rounded=0;orthogonalLoop=1;jettySize=auto;html=1;entryX=0.5;entryY=1;entryDx=0;entryDy=0;" edge="1" parent="1" source="hLho7cOb9sQzMaABNx2y-19" target="WWy0VLPpm0c-I_caaxq3-40">
          <mxGeometry y="60" relative="1" as="geometry">
            <mxPoint as="offset" />
          </mxGeometry>
        </mxCell>
        <mxCell id="hLho7cOb9sQzMaABNx2y-19" value="" style="rhombus;whiteSpace=wrap;html=1;rounded=0;" parent="1" vertex="1">
          <mxGeometry x="160" y="1280" width="80" height="80" as="geometry" />
        </mxCell>
        <mxCell id="hLho7cOb9sQzMaABNx2y-24" value="Поиск игрока" style="rounded=0;orthogonalLoop=1;jettySize=auto;html=1;exitX=1;exitY=0;exitDx=0;exitDy=0;entryX=0;entryY=0.5;entryDx=0;entryDy=0;" parent="1" source="hLho7cOb9sQzMaABNx2y-19" target="hLho7cOb9sQzMaABNx2y-26" edge="1">
          <mxGeometry x="0.0862" y="-41" relative="1" as="geometry">
            <mxPoint x="200" y="1260" as="sourcePoint" />
            <mxPoint as="offset" />
          </mxGeometry>
        </mxCell>
        <mxCell id="nNgnf1bsEjUyluCuBUII-3" style="edgeStyle=orthogonalEdgeStyle;rounded=0;orthogonalLoop=1;jettySize=auto;html=1;entryX=0;entryY=0.5;entryDx=0;entryDy=0;" parent="1" source="hLho7cOb9sQzMaABNx2y-26" target="nNgnf1bsEjUyluCuBUII-2" edge="1">
          <mxGeometry relative="1" as="geometry" />
        </mxCell>
        <mxCell id="hLho7cOb9sQzMaABNx2y-26" value="" style="rhombus;whiteSpace=wrap;html=1;rounded=0;" parent="1" vertex="1">
          <mxGeometry x="280" y="1120" width="80" height="80" as="geometry" />
        </mxCell>
        <mxCell id="hLho7cOb9sQzMaABNx2y-32" value="Просмотр аналитики" style="whiteSpace=wrap;html=1;rounded=1;arcSize=19;" parent="1" vertex="1">
          <mxGeometry x="940" y="729" width="120" height="60" as="geometry" />
        </mxCell>
        <mxCell id="hLho7cOb9sQzMaABNx2y-33" value="B" style="ellipse;whiteSpace=wrap;html=1;aspect=fixed;fillColor=#f8cecc;strokeColor=#b85450;" parent="1" vertex="1">
          <mxGeometry x="920" y="1120" width="80" height="80" as="geometry" />
        </mxCell>
        <mxCell id="hLho7cOb9sQzMaABNx2y-35" style="edgeStyle=orthogonalEdgeStyle;rounded=0;orthogonalLoop=1;jettySize=auto;html=1;entryX=0;entryY=0.5;entryDx=0;entryDy=0;" parent="1" source="hLho7cOb9sQzMaABNx2y-34" target="hLho7cOb9sQzMaABNx2y-32" edge="1">
          <mxGeometry relative="1" as="geometry" />
        </mxCell>
        <mxCell id="hLho7cOb9sQzMaABNx2y-34" value="B" style="ellipse;whiteSpace=wrap;html=1;aspect=fixed;fillColor=#f8cecc;strokeColor=#000000;" parent="1" vertex="1">
          <mxGeometry x="800" y="719" width="80" height="80" as="geometry" />
        </mxCell>
        <mxCell id="hLho7cOb9sQzMaABNx2y-42" style="edgeStyle=orthogonalEdgeStyle;rounded=0;orthogonalLoop=1;jettySize=auto;html=1;entryX=0;entryY=0.5;entryDx=0;entryDy=0;" parent="1" source="hLho7cOb9sQzMaABNx2y-39" target="8KOQaTp2vuC-cNq4KXza-4" edge="1">
          <mxGeometry relative="1" as="geometry">
            <mxPoint x="120" y="755" as="targetPoint" />
          </mxGeometry>
        </mxCell>
        <mxCell id="hLho7cOb9sQzMaABNx2y-39" value="С" style="ellipse;whiteSpace=wrap;html=1;aspect=fixed;fillColor=#d5e8d4;strokeColor=#000000;" parent="1" vertex="1">
          <mxGeometry y="719" width="80" height="80" as="geometry" />
        </mxCell>
        <mxCell id="hLho7cOb9sQzMaABNx2y-48" style="edgeStyle=orthogonalEdgeStyle;rounded=0;orthogonalLoop=1;jettySize=auto;html=1;entryX=0;entryY=0.5;entryDx=0;entryDy=0;exitX=1;exitY=0.5;exitDx=0;exitDy=0;" parent="1" source="hLho7cOb9sQzMaABNx2y-18" target="hLho7cOb9sQzMaABNx2y-46" edge="1">
          <mxGeometry relative="1" as="geometry">
            <Array as="points">
              <mxPoint x="560" y="920" />
              <mxPoint x="560" y="759" />
            </Array>
            <mxPoint x="740" y="840" as="targetPoint" />
            <mxPoint x="519.9999999999998" y="920" as="sourcePoint" />
          </mxGeometry>
        </mxCell>
        <mxCell id="hLho7cOb9sQzMaABNx2y-46" value="D" style="ellipse;whiteSpace=wrap;html=1;aspect=fixed;fillColor=#ffe6cc;strokeColor=#d79b00;" parent="1" vertex="1">
          <mxGeometry x="640" y="719" width="80" height="80" as="geometry" />
        </mxCell>
        <mxCell id="hLho7cOb9sQzMaABNx2y-50" style="edgeStyle=orthogonalEdgeStyle;rounded=0;orthogonalLoop=1;jettySize=auto;html=1;entryX=0;entryY=0.5;entryDx=0;entryDy=0;" parent="1" source="hLho7cOb9sQzMaABNx2y-49" target="hLho7cOb9sQzMaABNx2y-19" edge="1">
          <mxGeometry relative="1" as="geometry" />
        </mxCell>
        <mxCell id="hLho7cOb9sQzMaABNx2y-49" value="D" style="ellipse;whiteSpace=wrap;html=1;aspect=fixed;fillColor=#ffe6cc;strokeColor=#000000;" parent="1" vertex="1">
          <mxGeometry y="1280" width="80" height="80" as="geometry" />
        </mxCell>
        <mxCell id="nNgnf1bsEjUyluCuBUII-7" style="edgeStyle=orthogonalEdgeStyle;rounded=0;orthogonalLoop=1;jettySize=auto;html=1;entryX=0;entryY=0.5;entryDx=0;entryDy=0;" parent="1" source="nNgnf1bsEjUyluCuBUII-2" target="nNgnf1bsEjUyluCuBUII-4" edge="1">
          <mxGeometry relative="1" as="geometry" />
        </mxCell>
        <mxCell id="nNgnf1bsEjUyluCuBUII-2" value="Ввод&lt;div&gt;Никнейм и Тег&lt;/div&gt;" style="rounded=1;whiteSpace=wrap;html=1;" parent="1" vertex="1">
          <mxGeometry x="400" y="1130" width="120" height="60" as="geometry" />
        </mxCell>
        <mxCell id="nNgnf1bsEjUyluCuBUII-4" value="" style="rhombus;whiteSpace=wrap;html=1;rounded=0;arcSize=19;" parent="1" vertex="1">
          <mxGeometry x="560" y="1120" width="80" height="80" as="geometry" />
        </mxCell>
        <mxCell id="nNgnf1bsEjUyluCuBUII-5" value="Не найдено" style="edgeStyle=orthogonalEdgeStyle;rounded=0;orthogonalLoop=1;jettySize=auto;html=1;entryX=1;entryY=0.5;entryDx=0;entryDy=0;exitX=0.5;exitY=1;exitDx=0;exitDy=0;" parent="1" source="nNgnf1bsEjUyluCuBUII-4" target="hLho7cOb9sQzMaABNx2y-19" edge="1">
          <mxGeometry x="0.3333" y="10" relative="1" as="geometry">
            <Array as="points">
              <mxPoint x="600" y="1320" />
            </Array>
            <mxPoint as="offset" />
            <mxPoint x="390" y="1350.25" as="targetPoint" />
          </mxGeometry>
        </mxCell>
        <mxCell id="nNgnf1bsEjUyluCuBUII-6" value="Найдено" style="edgeStyle=orthogonalEdgeStyle;rounded=0;orthogonalLoop=1;jettySize=auto;html=1;entryX=0;entryY=0.5;entryDx=0;entryDy=0;exitX=1;exitY=0.5;exitDx=0;exitDy=0;" parent="1" source="nNgnf1bsEjUyluCuBUII-4" target="8KOQaTp2vuC-cNq4KXza-12" edge="1">
          <mxGeometry x="0.7143" y="-10" relative="1" as="geometry">
            <mxPoint as="offset" />
            <mxPoint x="920" y="1600" as="sourcePoint" />
            <mxPoint x="920" y="1390" as="targetPoint" />
            <Array as="points">
              <mxPoint x="680" y="1160" />
              <mxPoint x="680" y="1320" />
            </Array>
          </mxGeometry>
        </mxCell>
        <mxCell id="nNgnf1bsEjUyluCuBUII-8" value="Привязать игрока" style="edgeStyle=orthogonalEdgeStyle;rounded=0;orthogonalLoop=1;jettySize=auto;html=1;exitX=0.5;exitY=1;exitDx=0;exitDy=0;entryX=0.5;entryY=0;entryDx=0;entryDy=0;" parent="1" source="8KOQaTp2vuC-cNq4KXza-12" target="nNgnf1bsEjUyluCuBUII-9" edge="1">
          <mxGeometry y="-50" relative="1" as="geometry">
            <mxPoint x="1070" y="1430" as="sourcePoint" />
            <mxPoint x="1165" y="1540" as="targetPoint" />
            <Array as="points" />
            <mxPoint as="offset" />
          </mxGeometry>
        </mxCell>
        <mxCell id="WWy0VLPpm0c-I_caaxq3-14" style="edgeStyle=orthogonalEdgeStyle;rounded=0;orthogonalLoop=1;jettySize=auto;html=1;" edge="1" parent="1" source="nNgnf1bsEjUyluCuBUII-9" target="WWy0VLPpm0c-I_caaxq3-13">
          <mxGeometry relative="1" as="geometry" />
        </mxCell>
        <mxCell id="nNgnf1bsEjUyluCuBUII-9" value="" style="rhombus;whiteSpace=wrap;html=1;rounded=0;arcSize=19;" parent="1" vertex="1">
          <mxGeometry x="760" y="1440" width="80" height="80" as="geometry" />
        </mxCell>
        <mxCell id="nNgnf1bsEjUyluCuBUII-10" value="" style="rhombus;whiteSpace=wrap;html=1;rounded=0;" parent="1" vertex="1">
          <mxGeometry x="160" y="1440" width="80" height="80" as="geometry" />
        </mxCell>
        <mxCell id="nNgnf1bsEjUyluCuBUII-13" value="" style="ellipse;whiteSpace=wrap;html=1;aspect=fixed;strokeWidth=1;strokeColor=default;fillColor=#AF24FF;" parent="1" vertex="1">
          <mxGeometry x="261" y="1540.5" width="30" height="30" as="geometry" />
        </mxCell>
        <mxCell id="nNgnf1bsEjUyluCuBUII-14" value="" style="endArrow=classic;html=1;rounded=0;exitX=1;exitY=1;exitDx=0;exitDy=0;entryX=0;entryY=0;entryDx=0;entryDy=0;" parent="1" source="nNgnf1bsEjUyluCuBUII-10" target="nNgnf1bsEjUyluCuBUII-15" edge="1">
          <mxGeometry width="50" height="50" relative="1" as="geometry">
            <mxPoint x="360" y="1533" as="sourcePoint" />
            <mxPoint x="290" y="1490" as="targetPoint" />
            <Array as="points" />
          </mxGeometry>
        </mxCell>
        <mxCell id="nNgnf1bsEjUyluCuBUII-15" value="" style="ellipse;whiteSpace=wrap;html=1;aspect=fixed;strokeWidth=1;strokeColor=default;fillColor=none;" parent="1" vertex="1">
          <mxGeometry x="251" y="1531" width="49" height="49" as="geometry" />
        </mxCell>
        <mxCell id="WWy0VLPpm0c-I_caaxq3-13" value="D" style="ellipse;whiteSpace=wrap;html=1;aspect=fixed;fillColor=#ffe6cc;strokeColor=#d79b00;" vertex="1" parent="1">
          <mxGeometry x="920" y="1360" width="80" height="80" as="geometry" />
        </mxCell>
        <mxCell id="WWy0VLPpm0c-I_caaxq3-15" value="Поиск игрока" style="edgeStyle=orthogonalEdgeStyle;rounded=0;orthogonalLoop=1;jettySize=auto;html=1;exitX=0.5;exitY=0;exitDx=0;exitDy=0;entryX=0.5;entryY=1;entryDx=0;entryDy=0;" edge="1" parent="1" source="WWy0VLPpm0c-I_caaxq3-16" target="WWy0VLPpm0c-I_caaxq3-22">
          <mxGeometry x="-0.0031" y="-40" relative="1" as="geometry">
            <mxPoint x="200" y="309.75" as="sourcePoint" />
            <Array as="points" />
            <mxPoint x="240" y="160.25" as="targetPoint" />
            <mxPoint as="offset" />
          </mxGeometry>
        </mxCell>
        <mxCell id="WWy0VLPpm0c-I_caaxq3-16" value="" style="rhombus;whiteSpace=wrap;html=1;" vertex="1" parent="1">
          <mxGeometry x="160" y="280.25" width="80" height="80" as="geometry" />
        </mxCell>
        <mxCell id="WWy0VLPpm0c-I_caaxq3-17" value="Не найдено" style="edgeStyle=orthogonalEdgeStyle;rounded=0;orthogonalLoop=1;jettySize=auto;html=1;entryX=1;entryY=0.5;entryDx=0;entryDy=0;exitX=0.5;exitY=1;exitDx=0;exitDy=0;" edge="1" parent="1" source="WWy0VLPpm0c-I_caaxq3-30" target="WWy0VLPpm0c-I_caaxq3-16">
          <mxGeometry x="0.3339" y="10" relative="1" as="geometry">
            <Array as="points">
              <mxPoint x="480" y="320.25" />
            </Array>
            <mxPoint as="offset" />
            <mxPoint x="480" y="250.25" as="sourcePoint" />
          </mxGeometry>
        </mxCell>
        <mxCell id="WWy0VLPpm0c-I_caaxq3-18" value="Найдено" style="edgeStyle=orthogonalEdgeStyle;rounded=0;orthogonalLoop=1;jettySize=auto;html=1;entryX=0;entryY=0.5;entryDx=0;entryDy=0;exitX=1;exitY=0.5;exitDx=0;exitDy=0;" edge="1" parent="1" source="WWy0VLPpm0c-I_caaxq3-30" target="WWy0VLPpm0c-I_caaxq3-20">
          <mxGeometry x="0.7145" y="-10" relative="1" as="geometry">
            <mxPoint as="offset" />
            <mxPoint x="550" y="160.25" as="sourcePoint" />
            <Array as="points">
              <mxPoint x="560" y="160.25" />
              <mxPoint x="560" y="320.25" />
            </Array>
          </mxGeometry>
        </mxCell>
        <mxCell id="WWy0VLPpm0c-I_caaxq3-19" value="Просмотр аналитики" style="edgeStyle=orthogonalEdgeStyle;rounded=0;orthogonalLoop=1;jettySize=auto;html=1;entryX=0;entryY=0.5;entryDx=0;entryDy=0;exitX=0.5;exitY=0;exitDx=0;exitDy=0;" edge="1" parent="1" source="WWy0VLPpm0c-I_caaxq3-20" target="WWy0VLPpm0c-I_caaxq3-27">
          <mxGeometry x="-0.5004" y="-60" relative="1" as="geometry">
            <mxPoint as="offset" />
          </mxGeometry>
        </mxCell>
        <mxCell id="WWy0VLPpm0c-I_caaxq3-20" value="" style="rhombus;whiteSpace=wrap;html=1;rounded=0;arcSize=19;" vertex="1" parent="1">
          <mxGeometry x="640" y="280.25" width="80" height="80" as="geometry" />
        </mxCell>
        <mxCell id="WWy0VLPpm0c-I_caaxq3-21" style="edgeStyle=orthogonalEdgeStyle;rounded=0;orthogonalLoop=1;jettySize=auto;html=1;entryX=0;entryY=0.5;entryDx=0;entryDy=0;" edge="1" parent="1" source="WWy0VLPpm0c-I_caaxq3-22" target="WWy0VLPpm0c-I_caaxq3-24">
          <mxGeometry relative="1" as="geometry" />
        </mxCell>
        <mxCell id="WWy0VLPpm0c-I_caaxq3-22" value="" style="rhombus;whiteSpace=wrap;html=1;" vertex="1" parent="1">
          <mxGeometry x="160" y="120" width="80" height="80" as="geometry" />
        </mxCell>
        <mxCell id="WWy0VLPpm0c-I_caaxq3-23" style="edgeStyle=orthogonalEdgeStyle;rounded=0;orthogonalLoop=1;jettySize=auto;html=1;entryX=0;entryY=0.5;entryDx=0;entryDy=0;" edge="1" parent="1" source="WWy0VLPpm0c-I_caaxq3-24" target="WWy0VLPpm0c-I_caaxq3-30">
          <mxGeometry relative="1" as="geometry" />
        </mxCell>
        <mxCell id="WWy0VLPpm0c-I_caaxq3-24" value="Ввод&lt;div&gt;Никнейм и Тег&lt;/div&gt;" style="rounded=1;whiteSpace=wrap;html=1;" vertex="1" parent="1">
          <mxGeometry x="280" y="130" width="120" height="60" as="geometry" />
        </mxCell>
        <mxCell id="WWy0VLPpm0c-I_caaxq3-25" value="" style="ellipse;whiteSpace=wrap;html=1;aspect=fixed;strokeWidth=1;strokeColor=default;fillColor=#AF24FF;" vertex="1" parent="1">
          <mxGeometry x="80" y="230" width="30" height="30" as="geometry" />
        </mxCell>
        <mxCell id="WWy0VLPpm0c-I_caaxq3-26" value="" style="endArrow=classic;html=1;rounded=0;entryX=0;entryY=0;entryDx=0;entryDy=0;exitX=1;exitY=1;exitDx=0;exitDy=0;" edge="1" parent="1" source="WWy0VLPpm0c-I_caaxq3-25" target="WWy0VLPpm0c-I_caaxq3-16">
          <mxGeometry width="50" height="50" relative="1" as="geometry">
            <mxPoint x="310" y="510.25" as="sourcePoint" />
            <mxPoint x="360" y="460.25" as="targetPoint" />
            <Array as="points" />
          </mxGeometry>
        </mxCell>
        <mxCell id="WWy0VLPpm0c-I_caaxq3-27" value="B" style="ellipse;whiteSpace=wrap;html=1;aspect=fixed;fillColor=#f8cecc;strokeColor=#b85450;" vertex="1" parent="1">
          <mxGeometry x="800" y="120" width="80" height="80" as="geometry" />
        </mxCell>
        <mxCell id="WWy0VLPpm0c-I_caaxq3-28" value="Авторизация" style="edgeStyle=orthogonalEdgeStyle;rounded=0;orthogonalLoop=1;jettySize=auto;html=1;entryX=0.5;entryY=0;entryDx=0;entryDy=0;" edge="1" parent="1" source="WWy0VLPpm0c-I_caaxq3-16" target="WWy0VLPpm0c-I_caaxq3-29">
          <mxGeometry y="40" relative="1" as="geometry">
            <Array as="points" />
            <mxPoint x="190" y="390.25" as="sourcePoint" />
            <mxPoint x="770" y="1295.25" as="targetPoint" />
            <mxPoint as="offset" />
          </mxGeometry>
        </mxCell>
        <mxCell id="WWy0VLPpm0c-I_caaxq3-29" value="С" style="ellipse;whiteSpace=wrap;html=1;aspect=fixed;fillColor=#d5e8d4;strokeColor=#82b366;" vertex="1" parent="1">
          <mxGeometry x="160" y="440.25" width="80" height="80" as="geometry" />
        </mxCell>
        <mxCell id="WWy0VLPpm0c-I_caaxq3-30" value="" style="rhombus;whiteSpace=wrap;html=1;" vertex="1" parent="1">
          <mxGeometry x="440" y="120" width="80" height="80" as="geometry" />
        </mxCell>
        <mxCell id="WWy0VLPpm0c-I_caaxq3-33" value="" style="ellipse;whiteSpace=wrap;html=1;aspect=fixed;strokeWidth=1;strokeColor=default;fillColor=#AF24FF;" vertex="1" parent="1">
          <mxGeometry x="740" y="379.5" width="30" height="30" as="geometry" />
        </mxCell>
        <mxCell id="WWy0VLPpm0c-I_caaxq3-34" value="" style="endArrow=classic;html=1;rounded=0;exitX=1;exitY=1;exitDx=0;exitDy=0;" edge="1" target="WWy0VLPpm0c-I_caaxq3-35" parent="1" source="WWy0VLPpm0c-I_caaxq3-20">
          <mxGeometry width="50" height="50" relative="1" as="geometry">
            <mxPoint x="730" y="350" as="sourcePoint" />
            <mxPoint x="760" y="340" as="targetPoint" />
            <Array as="points" />
          </mxGeometry>
        </mxCell>
        <mxCell id="WWy0VLPpm0c-I_caaxq3-35" value="" style="ellipse;whiteSpace=wrap;html=1;aspect=fixed;strokeWidth=1;strokeColor=default;fillColor=none;" vertex="1" parent="1">
          <mxGeometry x="730" y="370" width="49" height="49" as="geometry" />
        </mxCell>
        <mxCell id="WWy0VLPpm0c-I_caaxq3-37" value="&lt;font style=&quot;font-size: 26px;&quot; color=&quot;#ffffff&quot;&gt;Неавторизованный пользователь&lt;/font&gt;" style="rounded=0;whiteSpace=wrap;html=1;strokeColor=#FFFFFF;fillColor=#000000;" vertex="1" parent="1">
          <mxGeometry width="640" height="80" as="geometry" />
        </mxCell>
        <mxCell id="WWy0VLPpm0c-I_caaxq3-38" value="&lt;font style=&quot;font-size: 26px;&quot; color=&quot;#ffffff&quot;&gt;Авторизованный пользователь&lt;/font&gt;" style="rounded=0;whiteSpace=wrap;html=1;strokeColor=#FFFFFF;fillColor=#000000;" vertex="1" parent="1">
          <mxGeometry y="1000" width="640" height="80" as="geometry" />
        </mxCell>
        <mxCell id="WWy0VLPpm0c-I_caaxq3-40" value="B" style="ellipse;whiteSpace=wrap;html=1;aspect=fixed;fillColor=#f8cecc;strokeColor=#b85450;" vertex="1" parent="1">
          <mxGeometry x="160" y="1120" width="80" height="80" as="geometry" />
        </mxCell>
      </root>
    </mxGraphModel>
  </diagram>
</mxfile>
